<svg viewBox="0 0 256 256" fill="none" xmlns="http://www.w3.org/2000/svg">
  <defs>
    <linearGradient id="clario-favicon-gradient" x1="48" y1="36" x2="214" y2="224" gradientUnits="userSpaceOnUse">
      <stop class="badge-top" offset="0" />
      <stop class="badge-bottom" offset="1" />
    </linearGradient>
    <style>
      .badge-top { stop-color: #98ae81; }
      .badge-bottom { stop-color: #738c5d; }
      .badge-outline { stroke: #d9e3ce; }
      .badge-icon { stroke: #fffdf8; }
      .badge-sparkle { fill: #eef5e8; }

      @media (prefers-color-scheme: dark) {
        .badge-top { stop-color: #bbb4f2; }
        .badge-bottom { stop-color: #8f87d6; }
        .badge-outline { stroke: #d6d1ff; }
        .badge-icon { stroke: #151829; }
        .badge-sparkle { fill: #f4f6ff; }
      }
    </style>
  </defs>

  <rect x="24" y="24" width="208" height="208" rx="64" fill="url(#clario-favicon-gradient)"/>
  <rect x="28" y="28" width="200" height="200" rx="60" class="badge-outline" opacity="0.56" stroke-width="8"/>
  <path
    d="M76 94C76 82.95 84.95 74 96 74H154C162.61 74 170.73 78.06 175.88 84.94L191.64 105.95C195.85 111.56 198 118.38 198 125.4V186C198 197.05 189.05 206 178 206H96C84.95 206 76 197.05 76 186V94Z"
    class="badge-icon"
    stroke-linecap="round"
    stroke-linejoin="round"
    stroke-width="16"
  />
  <path d="M106 122H176" class="badge-icon" stroke-linecap="round" stroke-width="15"/>
  <path d="M106 152H150" class="badge-icon" stroke-linecap="round" stroke-width="15"/>
  <path d="M174 50L180 68L198 74L180 80L174 98L168 80L150 74L168 68L174 50Z" class="badge-sparkle"/>
</svg>
